# xmcd
#
# Track frame offsets:
#	150
#	21225
#	41585
#	58710
#	72445
#	91707
#	109950
#	133905
#	167860
#	183040
#	200212
#	230190
#	245435
#	263677
#	291795
#	303702
#
# Disc length: 4311 seconds
#
# Revision: 0
# Processed by: cddbd v1.5PL3 Copyright (c) Steve Scherf et al.
# Submitted via: EasyCDDAExtractor 4.6.0.1
#
DISCID=f210d510
DTITLE=Blue Diamonds - Klapperthal
DYEAR=1999
DGENRE=Country
TTITLE0=Rio Grande
TTITLE1=Head to Toe
TTITLE2=Diesel Call
TTITLE3=Peroxide and Powder
TTITLE4=Don't Go
TTITLE5=Down in the Docket
TTITLE6=Skip the Middle One
TTITLE7=Come All Ye Roving Gamblers
TTITLE8=KU-DE-GRA
TTITLE9=Pockets
TTITLE10=Dream On
TTITLE11=Drivin' Wheel
TTITLE12=With Your Love
TTITLE13=Light In The Lowlands
TTITLE14=Terites
TTITLE15=West Virginia Coal Mine
EXTD=
EXTT0=
EXTT1=
EXTT2=
EXTT3=
EXTT4=
EXTT5=
EXTT6=
EXTT7=
EXTT8=
EXTT9=
EXTT10=
EXTT11=
EXTT12=
EXTT13=
EXTT14=
EXTT15=
PLAYORDER=
